<?xml version="1.0" encoding="UTF-8"?>
<svg width="150px" height="50px" viewBox="0 0 150 50" version="1.1" xmlns="http://www.w3.org/2000/svg" xmlns:xlink="http://www.w3.org/1999/xlink">
    <!-- Generator: Sketch 43.2 (39069) - http://www.bohemiancoding.com/sketch -->
    <title>logo</title>
    <desc>Created with Sketch.</desc>
    <defs></defs>
    <g id="Page-1" stroke="none" stroke-width="1" fill="none" fill-rule="evenodd">
        <g id="logo">
            <g id="Logo" transform="translate(1.000000, 0.000000)">
                <g id="Group">
                    <path d="M90.9088235,28.1480392 C91.4669963,28.7062119 91.8856195,29.3640485 92.1647059,30.1215686 C92.4437922,30.8790888 92.5833333,31.7163353 92.5833333,32.6333333 L92.5833333,41.4843137 C92.5833333,42.5209202 92.3839889,43.4977078 91.9852941,44.4147059 C91.5865993,45.3317039 91.0483694,46.1290816 90.3705882,46.8068627 C89.6928071,47.4846439 88.8954294,48.0228738 87.9784314,48.4215686 C87.0614333,48.8202634 86.0846457,49.0196078 85.0480392,49.0196078 L76.077451,49.0196078 C75.5192783,49.0196078 75.2401961,48.7405257 75.2401961,48.1823529 L75.2401961,7.99411765 C75.2401961,7.43594492 75.5192783,7.15686275 76.077451,7.15686275 L85.0480392,7.15686275 C86.0846457,7.15686275 87.0614333,7.35620716 87.9784314,7.75490196 C88.8954294,8.15359676 89.6928071,8.69182668 90.3705882,9.36960784 C91.0483694,10.047389 91.5865993,10.8447667 91.9852941,11.7617647 C92.3839889,12.6787628 92.5833333,13.6555504 92.5833333,14.6921569 L92.5833333,20.672549 C92.5833333,22.5065451 92.025169,24.0414971 90.9088235,25.277451 C90.3107813,25.9153627 89.5931414,26.4336581 88.7558824,26.8323529 C89.6330109,27.1513088 90.3506508,27.5898665 90.9088235,28.1480392 Z M85.5862745,31.6764706 C85.5862745,31.2777758 85.4467334,30.9388903 85.1676471,30.6598039 C84.8885607,30.3807176 84.5496752,30.2411765 84.1509804,30.2411765 L82.2372549,30.2411765 L82.2372549,42.6205882 L84.1509804,42.6205882 C84.5496752,42.6205882 84.8885607,42.4810471 85.1676471,42.2019608 C85.4467334,41.9228744 85.5862745,41.5839889 85.5862745,41.1852941 L85.5862745,31.6764706 Z M85.5862745,14.9911765 L85.5862745,22.2872549 C85.5862745,22.6859497 85.4467334,23.0248352 85.1676471,23.3039216 C84.8885607,23.5830079 84.5496752,23.722549 84.1509804,23.722549 L82.2372549,23.722549 L82.2372549,13.5558824 L84.1509804,13.5558824 C84.5496752,13.5558824 84.8885607,13.6954234 85.1676471,13.9745098 C85.4467334,14.2535962 85.5862745,14.5924817 85.5862745,14.9911765 Z M111.996078,7.15686275 C112.554251,7.15686275 112.833333,7.43594492 112.833333,7.99411765 L112.833333,41.9029412 C112.833333,42.9395477 112.633989,43.9163353 112.235294,44.8333333 C111.836599,45.7503314 111.298369,46.547709 110.620588,47.2254902 C109.942807,47.9032714 109.145429,48.4415013 108.228431,48.8401961 C107.311433,49.2388909 106.334646,49.4382353 105.298039,49.4382353 L103.02549,49.4382353 C101.988884,49.4382353 101.012096,49.2388909 100.095098,48.8401961 C99.1781,48.4415013 98.3807223,47.9032714 97.7029412,47.2254902 C97.02516,46.547709 96.4869301,45.7503314 96.0882353,44.8333333 C95.6895405,43.9163353 95.4901961,42.9395477 95.4901961,41.9029412 L95.4901961,7.99411765 C95.4901961,7.43594492 95.7692783,7.15686275 96.327451,7.15686275 L101.65,7.15686275 C102.208173,7.15686275 102.487255,7.43594492 102.487255,7.99411765 L102.487255,41.6039216 C102.487255,42.0026164 102.626796,42.3415019 102.905882,42.6205882 C103.184969,42.8996746 103.523854,43.0392157 103.922549,43.0392157 L104.40098,43.0392157 C104.799675,43.0392157 105.138561,42.8996746 105.417647,42.6205882 C105.696733,42.3415019 105.836275,42.0026164 105.836275,41.6039216 L105.836275,7.99411765 C105.836275,7.43594492 106.115357,7.15686275 106.673529,7.15686275 L111.996078,7.15686275 Z M130.368627,42.022549 C130.9268,42.022549 131.205882,42.3016312 131.205882,42.8598039 L131.205882,48.1823529 C131.205882,48.7405257 130.9268,49.0196078 130.368627,49.0196078 L116.793137,49.0196078 C116.234965,49.0196078 115.955882,48.7405257 115.955882,48.1823529 L115.955882,7.99411765 C115.955882,7.43594492 116.234965,7.15686275 116.793137,7.15686275 L122.115686,7.15686275 C122.673859,7.15686275 122.952941,7.43594492 122.952941,7.99411765 L122.952941,42.022549 L130.368627,42.022549 Z M148.143137,42.022549 C148.70131,42.022549 148.980392,42.3016312 148.980392,42.8598039 L148.980392,48.1823529 C148.980392,48.7405257 148.70131,49.0196078 148.143137,49.0196078 L134.567647,49.0196078 C134.009474,49.0196078 133.730392,48.7405257 133.730392,48.1823529 L133.730392,7.99411765 C133.730392,7.43594492 134.009474,7.15686275 134.567647,7.15686275 L139.890196,7.15686275 C140.448369,7.15686275 140.727451,7.43594492 140.727451,7.99411765 L140.727451,42.022549 L148.143137,42.022549 Z" id="Text" fill="#009BFF"></path>
                    <path d="M64.3085428,27.4110338 C72.8448173,25.4355437 74.1987389,35.663975 72.9869742,34.4090731 C71.1085428,32.463975 69.2683467,30.8355437 66.4497193,31.4610338 C64.984033,31.786524 63.7183467,31.5227986 63.0026605,30.2306417 C62.2046212,28.7894652 63.4369742,27.6120142 64.3085428,27.4110338 Z M66.4996616,32.102314 C66.5300538,32.207216 66.5535832,32.3111375 66.5633871,32.4081963 C66.705544,34.1150591 66.7624067,34.7778042 64.9839753,36.7670199 C63.2075047,38.757216 59.8124067,42.5738826 59.8124067,42.5738826 C59.8124067,42.5738826 55.8310342,45.2042748 55.8310342,42.5738826 C55.8310342,39.0846669 55.7261322,36.3180003 55.7604459,35.6787846 C55.8310342,34.3307454 54.0388773,34.752314 53.2349557,34.9758434 C52.4820145,35.1846669 51.3447596,35.3915297 51.3447596,36.9552552 C51.3447596,38.5189807 51.1094655,45.0699611 51.1094655,45.0699611 C51.1094655,45.0699611 51.3163283,46.0150591 52.2771126,46.8385885 C53.300642,47.7170199 53.3682891,48.7915297 52.5849557,48.7915297 C51.8035832,48.7915297 47.878093,49.0650591 47.5829949,48.6876081 C46.8035832,47.6905493 47.273191,36.0121179 46.8477008,35.5376081 C46.4241714,35.0630983 45.89574,35.1189807 44.973191,34.9768238 C44.0486812,34.8346669 43.2977008,36.1199611 42.6584851,37.0444709 C42.0182891,37.9680003 36.1094655,45.6925101 36.1810342,46.5464316 C36.2516224,47.3993728 36.9977008,47.5101571 37.3898577,47.9032944 C37.9104459,48.4258434 38.8937793,49.6827062 37.7026028,49.6827062 C35.4986812,49.6827062 33.5535832,49.7846669 33.4065244,49.607216 C33.2594655,49.429765 33.0153479,46.4081963 33.0820145,45.9140787 C33.1486812,45.4219218 37.8898577,36.307216 37.6310342,35.3944709 C37.3722106,34.4817258 31.9996616,32.4081963 30.3712302,32.4081963 C29.0663283,32.4081963 27.2526028,36.0346669 26.8261322,36.6738826 C26.3996616,37.3140787 25.1202498,39.5885885 25.1202498,40.5130983 C25.1202498,41.4395689 25.5065244,41.6846669 26.5016224,42.679765 C27.4967204,43.674863 30.4359361,46.5699611 31.1045636,47.4003532 C32.078093,48.6111375 32.0898577,49.5062356 30.9496616,49.5405493 C29.3790734,49.5866277 27.8163283,49.7140787 27.3016224,49.4983924 C26.2104459,49.0395689 27.1143675,47.6738826 26.7761322,47.2876081 C26.2790734,46.7180003 18.0820145,43.7111375 18.1535832,42.502314 C18.2241714,41.2944709 18.805544,39.6327062 17.3839753,38.6376081 C16.4075047,37.9542748 14.8771126,37.697412 13.2829949,39.0807454 C12.1545636,40.0581963 10.9820145,40.3189807 10.5104459,41.8542748 C10.2594655,42.6689807 9.89279886,45.0581963 10.8643675,45.3346669 C12.1045636,45.6895689 12.8986812,48.0503532 12.1320145,48.0503532 L6.61632827,48.0503532 C5.81534788,48.0503532 6.70260278,45.3327062 6.68299494,43.5140787 C6.66534788,41.8493728 5.93691651,40.9395689 5.2878969,39.9062356 C4.6378969,38.8709414 3.77319102,36.3180003 4.31436749,35.7758434 C5.27319102,34.8180003 6.850642,36.1052552 7.91730866,35.1817258 C8.98299494,34.2581963 7.91730866,24.5895689 7.91730866,23.8081963 C7.91730866,23.7395689 7.9251518,23.6425101 7.93593612,23.5336865 C7.4124067,23.4542748 6.72123023,23.2121179 6.03985768,22.5591767 C4.66632827,21.2454513 1.54279886,18.6307454 0.945740037,17.5562356 C0.349661606,16.4817258 -0.845436434,15.1680003 0.945740037,13.1385885 C2.73691651,11.1091767 4.88593612,9.07878458 5.54279886,8.36211792 C6.19966161,7.64545125 6.81534788,7.00035321 8.00946553,7.06015713 C9.20358317,7.11996105 15.700642,7.18270615 15.9918185,7.04839243 C17.1192694,6.52976498 17.3045636,5.85427478 17.3643675,5.25721596 C17.4241714,4.66113753 17.1849557,3.88466694 16.6477008,3.76505909 C16.1104459,3.64545125 15.573191,3.16898066 15.155544,3.76505909 C14.7369165,4.36211792 14.2524357,3.68949046 12.5210631,3.27184341 C10.7896906,2.85419635 9.6624067,2.51113753 9.54279886,1.85427478 C9.42319102,1.19839243 11.8043964,0.823898974 12.5210631,0.525859758 C13.2377298,0.227820542 14.3192694,-0.175136985 14.9761322,0.123882623 C15.6320145,0.421921839 15.2133871,0.780745368 15.6320145,1.19839243 C16.050642,1.61603949 18.9653479,2.22976498 18.7859361,5.15525517 C18.6065244,8.08074537 17.74574,8.81996105 14.8800538,8.79251007 C13.8104459,8.78172576 8.15946553,8.51211792 7.70946553,8.92094145 C6.98201455,9.58270615 4.32907337,12.974863 4.04770082,13.3964316 C3.46828906,14.2650591 2.95554396,15.1091767 3.68397533,15.879765 C4.20358317,16.429765 5.3633871,17.3180003 5.6624067,17.6170199 C5.96142631,17.9150591 8.24672043,18.8885885 9.40358317,18.8287846 C10.3320145,18.3513336 14.3143675,16.7709414 14.3143675,16.7709414 C14.3143675,16.7709414 35.000642,7.88564733 36.6349557,7.52976498 C38.2702498,7.17388262 43.8859361,4.61505909 49.0751518,8.9513336 C54.2643675,13.2876081 64.2859361,23.1680003 64.6427989,23.524863 C64.9339753,23.8150591 66.4937793,25.6807454 66.7526028,26.6278042 C65.8702498,26.602314 64.9104459,26.6925101 63.8614263,26.9356473 C62.778093,27.1866277 61.2378969,28.6542748 62.2339753,30.4493728 C63.1222106,32.0513336 64.6878969,32.3827062 66.4996616,32.102314 Z" id="Bull" fill="#16347E" fill-rule="nonzero"></path>
                </g>
            </g>
        </g>
    </g>
</svg>