<?xml version="1.0" encoding="UTF-8"?>
<svg width="300px" height="100px" viewBox="0 0 300 100" version="1.1" xmlns="http://www.w3.org/2000/svg" xmlns:xlink="http://www.w3.org/1999/xlink">
    <!-- Generator: Sketch 43.2 (39069) - http://www.bohemiancoding.com/sketch -->
    <title>logo</title>
    <desc>Created with Sketch.</desc>
    <defs></defs>
    <g id="Page-1" stroke="none" stroke-width="1" fill="none" fill-rule="evenodd">
        <g id="logo">
            <g id="Logo" transform="translate(1.000000, 0.000000)">
                <g id="Group">
                    <path d="M181.817647,56.2960784 C182.933993,57.4124239 183.771239,58.728097 184.329412,60.2431373 C184.887584,61.7581775 185.166667,63.4326706 185.166667,65.2666667 L185.166667,82.9686275 C185.166667,85.0418404 184.767978,86.9954157 183.970588,88.8294118 C183.173199,90.6634079 182.096739,92.2581632 180.741176,93.6137255 C179.385614,94.9692878 177.790859,96.0457476 175.956863,96.8431373 C174.122867,97.6405269 172.169291,98.0392157 170.096078,98.0392157 L152.154902,98.0392157 C151.038557,98.0392157 150.480392,97.4810513 150.480392,96.3647059 L150.480392,15.9882353 C150.480392,14.8718898 151.038557,14.3137255 152.154902,14.3137255 L170.096078,14.3137255 C172.169291,14.3137255 174.122867,14.7124143 175.956863,15.5098039 C177.790859,16.3071935 179.385614,17.3836534 180.741176,18.7392157 C182.096739,20.094778 183.173199,21.6895333 183.970588,23.5235294 C184.767978,25.3575255 185.166667,27.3111007 185.166667,29.3843137 L185.166667,41.345098 C185.166667,45.0130902 184.050338,48.0829942 181.817647,50.554902 C180.621563,51.8307253 179.186283,52.8673163 177.511765,53.6647059 C179.266022,54.3026176 180.701302,55.179733 181.817647,56.2960784 Z M171.172549,63.3529412 C171.172549,62.5555516 170.893467,61.8777806 170.335294,61.3196078 C169.777121,60.7614351 169.09935,60.4823529 168.301961,60.4823529 L164.47451,60.4823529 L164.47451,85.2411765 L168.301961,85.2411765 C169.09935,85.2411765 169.777121,84.9620943 170.335294,84.4039216 C170.893467,83.8457488 171.172549,83.1679778 171.172549,82.3705882 L171.172549,63.3529412 Z M171.172549,29.9823529 L171.172549,44.5745098 C171.172549,45.3718994 170.893467,46.0496704 170.335294,46.6078431 C169.777121,47.1660159 169.09935,47.445098 168.301961,47.445098 L164.47451,47.445098 L164.47451,27.1117647 L168.301961,27.1117647 C169.09935,27.1117647 169.777121,27.3908469 170.335294,27.9490196 C170.893467,28.5071923 171.172549,29.1849633 171.172549,29.9823529 Z M223.992157,14.3137255 C225.108502,14.3137255 225.666667,14.8718898 225.666667,15.9882353 L225.666667,83.8058824 C225.666667,85.8790953 225.267978,87.8326706 224.470588,89.6666667 C223.673199,91.5006628 222.596739,93.0954181 221.241176,94.4509804 C219.885614,95.8065427 218.290859,96.8830025 216.456863,97.6803922 C214.622867,98.4777818 212.669291,98.8764706 210.596078,98.8764706 L206.05098,98.8764706 C203.977767,98.8764706 202.024192,98.4777818 200.190196,97.6803922 C198.3562,96.8830025 196.761445,95.8065427 195.405882,94.4509804 C194.05032,93.0954181 192.97386,91.5006628 192.176471,89.6666667 C191.379081,87.8326706 190.980392,85.8790953 190.980392,83.8058824 L190.980392,15.9882353 C190.980392,14.8718898 191.538557,14.3137255 192.654902,14.3137255 L203.3,14.3137255 C204.416345,14.3137255 204.97451,14.8718898 204.97451,15.9882353 L204.97451,83.2078431 C204.97451,84.0052327 205.253592,84.6830037 205.811765,85.2411765 C206.369937,85.7993492 207.047708,86.0784314 207.845098,86.0784314 L208.801961,86.0784314 C209.59935,86.0784314 210.277121,85.7993492 210.835294,85.2411765 C211.393467,84.6830037 211.672549,84.0052327 211.672549,83.2078431 L211.672549,15.9882353 C211.672549,14.8718898 212.230713,14.3137255 213.347059,14.3137255 L223.992157,14.3137255 Z M260.737255,84.045098 C261.8536,84.045098 262.411765,84.6032624 262.411765,85.7196078 L262.411765,96.3647059 C262.411765,97.4810513 261.8536,98.0392157 260.737255,98.0392157 L233.586275,98.0392157 C232.469929,98.0392157 231.911765,97.4810513 231.911765,96.3647059 L231.911765,15.9882353 C231.911765,14.8718898 232.469929,14.3137255 233.586275,14.3137255 L244.231373,14.3137255 C245.347718,14.3137255 245.905882,14.8718898 245.905882,15.9882353 L245.905882,84.045098 L260.737255,84.045098 Z M296.286275,84.045098 C297.40262,84.045098 297.960784,84.6032624 297.960784,85.7196078 L297.960784,96.3647059 C297.960784,97.4810513 297.40262,98.0392157 296.286275,98.0392157 L269.135294,98.0392157 C268.018949,98.0392157 267.460784,97.4810513 267.460784,96.3647059 L267.460784,15.9882353 C267.460784,14.8718898 268.018949,14.3137255 269.135294,14.3137255 L279.780392,14.3137255 C280.896738,14.3137255 281.454902,14.8718898 281.454902,15.9882353 L281.454902,84.045098 L296.286275,84.045098 Z" id="Text" fill="#009BFF"></path>
                    <path d="M128.617086,54.8220677 C145.689635,50.8710873 148.397478,71.32795 145.973948,68.8181461 C142.217086,64.92795 138.536693,61.6710873 132.899439,62.9220677 C129.968066,63.5730481 127.436693,63.0455971 126.005321,60.4612834 C124.409242,57.5789304 126.873948,55.2240285 128.617086,54.8220677 Z M132.999323,64.204628 C133.060108,64.4144319 133.107166,64.6222751 133.126774,64.8163927 C133.411088,68.2301182 133.524813,69.5556084 129.967951,73.5340398 C126.415009,77.5144319 119.624813,85.1477652 119.624813,85.1477652 C119.624813,85.1477652 111.662068,90.4085496 111.662068,85.1477652 C111.662068,78.1693339 111.452264,72.6360005 111.520892,71.3575692 C111.662068,68.6614907 108.077755,69.504628 106.469911,69.9516868 C104.964029,70.3693339 102.689519,70.7830594 102.689519,73.9105103 C102.689519,77.0379613 102.218931,90.1399221 102.218931,90.1399221 C102.218931,90.1399221 102.632657,92.0301182 104.554225,93.677177 C106.601284,95.4340398 106.736578,97.5830594 105.169911,97.5830594 C103.607166,97.5830594 95.756186,98.1301182 95.1659899,97.3752162 C93.6071663,95.3810986 94.546382,72.0242358 93.6954016,71.0752162 C92.8483428,70.1261966 91.7914801,70.2379613 89.946382,69.9536476 C88.0973624,69.6693339 86.5954016,72.2399221 85.3169703,74.0889417 C84.0365781,75.9360005 72.2189311,91.3850201 72.3620683,93.0928633 C72.5032448,94.7987456 73.9954016,95.0203143 74.7797154,95.8065888 C75.8208918,96.8516868 77.7875585,99.3654123 75.4052056,99.3654123 C70.9973624,99.3654123 67.1071663,99.5693339 66.8130487,99.2144319 C66.5189311,98.85953 66.0306958,92.8163927 66.1640291,91.8281574 C66.2973624,90.8438437 75.7797154,72.6144319 75.2620683,70.7889417 C74.7444213,68.9634515 63.9993232,64.8163927 60.7424605,64.8163927 C58.1326565,64.8163927 54.5052056,72.0693339 53.6522644,73.3477652 C52.7993232,74.6281574 50.2404997,79.177177 50.2404997,81.0261966 C50.2404997,82.8791378 51.0130487,83.3693339 53.0032448,85.35953 C54.9934409,87.349726 60.8718722,93.1399221 62.2091271,94.8007064 C64.156186,97.2222751 64.1797154,99.0124711 61.8993232,99.0810986 C58.7581467,99.1732554 55.6326565,99.4281574 54.6032448,98.9967849 C52.4208918,98.0791378 54.228735,95.3477652 53.5522644,94.5752162 C52.5581467,93.4360005 36.1640291,87.4222751 36.3071663,85.004628 C36.4483428,82.5889417 37.6110879,79.2654123 34.7679507,77.2752162 C32.8150095,75.9085496 29.7542252,75.3948241 26.5659899,78.1614907 C24.3091271,80.1163927 21.9640291,80.6379613 21.0208918,83.7085496 C20.5189311,85.3379613 19.7855977,90.1163927 21.728735,90.6693339 C24.2091271,91.3791378 25.7973624,96.1007064 24.2640291,96.1007064 L13.2326565,96.1007064 C11.6306958,96.1007064 13.4052056,90.6654123 13.3659899,87.0281574 C13.3306958,83.6987456 11.873833,81.8791378 10.5757938,79.8124711 C9.2757938,77.7418829 7.54638203,72.6360005 8.62873498,71.5516868 C10.546382,69.6360005 13.701284,72.2105103 15.8346173,70.3634515 C17.9659899,68.5163927 15.8346173,49.1791378 15.8346173,47.6163927 C15.8346173,47.4791378 15.8503036,47.2850201 15.8718722,47.0673731 C14.8248134,46.9085496 13.4424605,46.4242358 12.0797154,45.1183535 C9.33265654,42.4909025 3.08559772,37.2614907 1.89148007,35.1124711 C0.699323211,32.9634515 -1.69087287,30.3360005 1.89148007,26.277177 C5.47383302,22.2183535 9.77187223,18.1575692 11.0855977,16.7242358 C12.3993232,15.2909025 13.6306958,14.0007064 16.0189311,14.1203143 C18.4071663,14.2399221 31.401284,14.3654123 31.9836369,14.0967849 C34.2385389,13.05953 34.6091271,11.7085496 34.728735,10.5144319 C34.8483428,9.32227505 34.3699114,7.76933387 33.2954016,7.53011819 C32.2208918,7.2909025 31.146382,6.33796132 30.3110879,7.53011819 C29.473833,8.72423583 28.5048713,7.37898093 25.0421262,6.54368681 C21.5793811,5.70839269 19.3248134,5.02227505 19.0855977,3.70854956 C18.846382,2.39678485 23.6087929,1.64779795 25.0421262,1.05171952 C26.4754596,0.455641085 28.6385389,-0.350273969 29.9522644,0.247765246 C31.2640291,0.843843678 30.4267742,1.56149074 31.2640291,2.39678485 C32.101284,3.23207897 37.9306958,4.45952995 37.5718722,10.3105103 C37.2130487,16.1614907 35.4914801,17.6399221 29.7601075,17.5850201 C27.6208918,17.5634515 16.3189311,17.0242358 15.4189311,17.8418829 C13.9640291,19.1654123 8.65814674,25.949726 8.09540164,26.7928633 C6.93657811,28.5301182 5.91108792,30.2183535 7.36795066,31.75953 C8.40716635,32.85953 10.7267742,34.6360005 11.3248134,35.2340398 C11.9228526,35.8301182 16.4934409,37.777177 18.8071663,37.6575692 C20.6640291,36.7026672 28.628735,33.5418829 28.628735,33.5418829 C28.628735,33.5418829 70.001284,15.7712947 73.2699114,15.05953 C76.5404997,14.3477652 87.7718722,9.23011819 98.1503036,17.9026672 C108.528735,26.5752162 128.571872,46.3360005 129.285598,47.049726 C129.867951,47.6301182 132.987559,51.3614907 133.505206,53.2556084 C131.7405,53.204628 129.820892,53.3850201 127.722853,53.8712947 C125.556186,54.3732554 122.475794,57.3085496 124.467951,60.8987456 C126.244421,64.1026672 129.375794,64.7654123 132.999323,64.204628 Z" id="Bull" fill="#16347E" fill-rule="nonzero"></path>
                </g>
            </g>
        </g>
    </g>
</svg>